<svg width="48" height="48" xmlns="http://www.w3.org/2000/svg">

 <g>
  <title>background</title>
  <rect fill="none" id="canvas_background" height="402" width="582" y="-1" x="-1"/>
 </g>
 <g>
  <title>Layer 1</title>
  <path fill="#ffffff" id="svg_3" d="m35,48l-24,0c-0.528,0 -0.965,-0.41 -0.998,-0.938l-2,-32c-0.017,-0.275 0.08,-0.546 0.269,-0.747s0.453,-0.315 0.729,-0.315l28,0c0.276,0 0.54,0.114 0.729,0.315s0.286,0.472 0.269,0.747l-2,32c-0.033,0.528 -0.47,0.938 -0.998,0.938zm-23.061,-2l22.121,0l1.875,-30l-25.871,0l1.875,30z"/>
  <path fill="#ffffff" id="svg_5" d="m39,16l-32,0c-0.552,0 -1,-0.447 -1,-1l0,-8c0,-0.553 0.448,-1 1,-1l32,0c0.552,0 1,0.447 1,1l0,8c0,0.553 -0.448,1 -1,1zm-31,-2l30,0l0,-6l-30,0l0,6z"/>
  <path fill="#ffffff" id="svg_7" d="m37.02,8c-0.006,-0.001 -0.013,0 -0.02,0l-28,0c-0.321,0 -0.623,-0.154 -0.811,-0.415s-0.239,-0.597 -0.138,-0.901l2,-6c0.137,-0.409 0.518,-0.684 0.949,-0.684l24,0c0.431,0 0.812,0.275 0.949,0.684l1.94,5.821c0.083,0.146 0.131,0.315 0.131,0.495c0,0.553 -0.448,1 -1,1zm-26.633,-2l25.226,0l-1.333,-4l-22.559,0l-1.334,4z"/>
  <path fill="#ffffff" id="svg_9" d="m36.5,24l-27,0c-0.552,0 -1,-0.447 -1,-1s0.448,-1 1,-1l27,0c0.552,0 1,0.447 1,1s-0.448,1 -1,1z"/>
  <rect fill="#ffffff" id="svg_11" y="34" x="10.25" width="25.5" height="2"/>
  <path fill="#ffffff" id="svg_13" d="m26,30l-6,0c-0.552,0 -1,-0.447 -1,-1s0.448,-1 1,-1l6,0c0.552,0 1,0.447 1,1s-0.448,1 -1,1z"/>
 </g>
</svg>